# xmcd
#
# Track frame offsets: 
#        150
#        10326
#        25997
#        38743
#        61650
#        78185
#        94550
#        109257
#        126284
#        140694
#        154531
#
# Disc length: 2225 seconds
#
# Revision: 0
# Processed by: cddbd v1.5.2PL0 Copyright (c) Steve Scherf et al.
# Submitted via: ExactAudioCopy v1.0b1
#
DISCID=8108af0b
DTITLE=Anni Rossi - Heavy Meadow
DYEAR=2011
DGENRE=Indie
TTITLE0=Candyland
TTITLE1=Crushing Limbs
TTITLE2=Hatchet
TTITLE3=Sandstorm
TTITLE4=Switchblade
TTITLE5=Texan Planes
TTITLE6=Land Majestic
TTITLE7=Frame Me Right
TTITLE8=The Fight
TTITLE9=Cha Cha Cha
TTITLE10=Safety of Objects
EXTD=
EXTT0=
EXTT1=
EXTT2=
EXTT3=
EXTT4=
EXTT5=
EXTT6=
EXTT7=
EXTT8=
EXTT9=
EXTT10=
PLAYORDER=
